<svg width="880" height="176" viewBox="0 0 880 176" fill="none" xmlns="http://www.w3.org/2000/svg">
<g clip-path="url(#clip0_11_500)">
<path d="M0 132.896V43.1757L24.8471 24.9824L49.6941 43.1757V132.896L24.8471 151.089L0 132.896Z" fill="white"/>
<path d="M127.167 88.0195L49.6942 43.1757L46.4006 12.4945L74.5283 0L152.001 44.8503L155.294 75.525L127.167 88.0195Z" fill="white"/>
<path d="M127.167 87.9805L49.6942 132.824L46.4006 163.505L74.5283 176L152.001 131.156L155.294 100.475L127.167 87.9805Z" fill="white"/>
<path d="M306.376 119.266C301.251 126.315 294.813 131.91 287.048 136.058C279.296 140.199 270.911 142.276 261.91 142.276C251.939 142.276 242.725 139.861 234.274 135.019C225.966 130.041 219.314 123.414 214.325 115.119C209.479 106.687 207.052 97.5681 207.052 87.7542C207.052 77.9404 209.479 68.8924 214.325 60.5974C219.308 52.1661 225.959 45.5327 234.274 40.6971C242.718 35.7188 251.939 33.2329 261.91 33.2329C270.775 33.2329 279.089 35.3034 286.841 39.4509C294.593 43.4557 301.038 48.9143 306.162 55.8268L284.764 70.1322C278.391 62.5316 270.775 58.7346 261.91 58.7346C256.649 58.7346 251.803 60.0457 247.364 62.6679C242.932 65.2901 239.399 68.821 236.772 73.2412C234.138 77.6613 232.825 82.5033 232.825 87.7542C232.825 93.0051 234.138 97.8407 236.772 102.267C239.405 106.687 242.932 110.212 247.364 112.841C251.796 115.326 256.643 116.566 261.91 116.566C266.478 116.566 270.704 115.599 274.579 113.665C278.455 111.594 281.846 108.758 284.758 105.169L306.369 119.266V119.279L306.376 119.266Z" fill="white"/>
<path d="M397.404 35.8283H423.118V139.678H397.404V128.618C389.665 137.718 379.636 142.275 367.335 142.275C356.969 142.275 347.839 139.925 339.958 135.239C332.077 130.553 325.995 124.068 321.711 115.786C317.421 107.504 315.286 98.1968 315.286 87.8572C315.286 77.5177 317.428 68.1971 321.711 59.9216C325.995 51.6395 332.077 45.1619 339.958 40.4691C347.839 35.6401 356.963 33.2256 367.335 33.2256C379.364 33.2256 389.387 37.7755 397.404 46.8819V35.8218V35.8283ZM367.956 118.279C376.394 118.279 383.369 115.384 388.902 109.588C394.57 103.792 397.404 96.4833 397.404 87.656C397.404 78.8288 394.641 71.5852 389.109 65.9319C383.576 60.2785 376.524 57.4486 367.956 57.4486C359.939 57.4486 353.372 60.4148 348.254 66.3408C343.135 72.2667 340.579 79.4454 340.579 87.8572C340.579 96.2691 343.135 103.649 348.254 109.581C353.372 115.378 359.933 118.272 367.956 118.272V118.279Z" fill="white"/>
<path d="M496.275 33.2385C502.376 33.2385 508.543 34.5497 514.781 37.1784C521.018 39.6708 526.363 44.2337 530.795 50.8736C535.376 57.5135 537.661 66.4381 537.661 77.641V139.685H511.869V77.641C511.869 69.8976 509.656 64.3611 505.217 61.0444C500.921 57.5849 495.854 55.8584 490.037 55.8584C484.22 55.8584 479.432 57.9354 475.271 62.0829C471.246 66.0941 469.241 72.5977 469.241 81.5873V139.685H443.449V35.8283H469.241V44.6491C472.987 41.1896 477.141 38.4246 481.716 36.3476C486.291 34.2706 491.144 33.2321 496.275 33.2321V33.2385Z" fill="white"/>
<path d="M608.028 33.2385C614.13 33.2385 620.297 34.5497 626.534 37.1784C632.772 39.6708 638.11 44.2337 642.549 50.8736C647.124 57.5135 649.408 66.4381 649.408 77.641V139.685H623.622V77.641C623.622 69.8976 621.403 64.3611 616.964 61.0444C612.668 57.5849 607.608 55.8584 601.784 55.8584C595.961 55.8584 591.179 57.9354 587.018 62.0829C582.994 66.0941 580.988 72.5977 580.988 81.5873V139.685H555.196V35.8283H580.988V44.6491C584.728 41.1896 588.882 38.4246 593.463 36.3476C598.038 34.2706 602.891 33.2321 608.022 33.2321L608.028 33.2385Z" fill="white"/>
<path d="M718.973 33.2385C728.944 33.2385 737.88 35.7244 745.774 40.7028C753.804 45.5448 760.042 52.1003 764.474 60.3953C768.907 68.6904 771.126 77.8746 771.126 87.9675C771.126 91.2842 770.848 94.3284 770.291 97.0869H689.888C691.687 104.136 695.355 109.796 700.894 114.086C706.433 118.227 713.149 120.304 721.05 120.304C726.175 120.304 731.021 119.2 735.589 116.987C740.3 114.78 743.826 111.937 746.182 108.491L765.924 120.096C761.077 127.281 754.775 132.805 747.017 136.68C739.401 140.412 730.601 142.281 720.629 142.281C709.552 142.281 699.71 139.932 691.124 135.232C682.537 130.533 675.885 124.042 671.175 115.747C666.471 107.452 664.115 98.1254 664.115 87.7598C664.115 77.3943 666.399 68.275 670.968 59.9799C675.678 51.6849 682.188 45.1878 690.502 40.4951C698.947 35.653 708.439 33.2385 718.967 33.2385H718.973ZM746.816 76.9789C745.845 70.3455 742.798 65.1659 737.673 61.4273C732.548 57.5589 726.181 55.6182 718.559 55.6182C713.292 55.6182 708.445 56.5853 704.02 58.5195C699.723 60.4537 696.261 63.0825 693.628 66.3992C691.001 69.7159 689.616 73.2403 689.474 76.9724H746.822L746.816 76.9789Z" fill="white"/>
<path d="M848.417 35.8284H880L842.186 87.6496L880 139.471L848.417 139.678L826.404 109.413L804.178 139.678L772.595 139.471L810.409 87.6496L772.595 35.8284H804.178L826.404 66.0942L848.417 35.8284Z" fill="white"/>
</g>
<defs>
<clipPath id="clip0_11_500">
<rect width="880" height="176" fill="white"/>
</clipPath>
</defs>
</svg>
